<svg width="985" height="699" viewBox="0 0 985 699" fill="none" xmlns="http://www.w3.org/2000/svg">
<line x1="4.77766" y1="475.01" x2="216.551" y2="666.05" stroke="#8E8E8E"/>
<line x1="3.96335" y1="478.2" x2="51.3532" y2="318.259" stroke="#8E8E8E"/>
<line x1="186.74" y1="424.026" x2="11.9896" y2="475.859" stroke="#8E8E8E"/>
<line x1="10.0854" y1="480.889" x2="264.806" y2="307.62" stroke="#8E8E8E"/>
<line x1="55.9535" y1="312.096" x2="242.551" y2="155.117" stroke="#8E8E8E"/>
<line x1="93.646" y1="141.81" x2="265.434" y2="307.675" stroke="#8E8E8E"/>
<line x1="102.062" y1="146.127" x2="371.591" y2="78.0037" stroke="#8E8E8E"/>
<line x1="158.913" y1="7.19454" x2="477.313" y2="688.423" stroke="#8E8E8E"/>
<line x1="215.762" y1="669.59" x2="51.3786" y2="312.685" stroke="#8E8E8E"/>
<line x1="178.97" y1="426.06" x2="464.79" y2="283.891" stroke="#8E8E8E"/>
<line x1="255.026" y1="306.157" x2="592.678" y2="566.801" stroke="#8E8E8E"/>
<line x1="257.397" y1="309.103" x2="509.155" y2="134.353" stroke="#8E8E8E"/>
<line x1="375.042" y1="78.1476" x2="634.205" y2="356.563" stroke="#8E8E8E"/>
<line x1="634.186" y1="356.546" x2="794.127" y2="510.563" stroke="#8E8E8E"/>
<line x1="825.033" y1="355.901" x2="382.235" y2="499.552" stroke="#8E8E8E"/>
<line x1="677.167" y1="24.0198" x2="453.546" y2="286.145" stroke="#8E8E8E"/>
<line x1="693.397" y1="17.3878" x2="792.619" y2="100.32" stroke="#8E8E8E"/>
<line x1="681.508" y1="19.6669" x2="509.72" y2="135.18" stroke="#8E8E8E"/>
<line x1="680.099" y1="17.4151" x2="962.957" y2="295.83" stroke="#8E8E8E"/>
<line x1="825.353" y1="355.265" x2="912.728" y2="612.947" stroke="#8E8E8E"/>
<line x1="791.921" y1="506.151" x2="974.075" y2="295.859" stroke="#8E8E8E"/>
<line x1="829.377" y1="355.923" x2="179.248" y2="428.488" stroke="#8E8E8E"/>
<line x1="589.776" y1="569.02" x2="477.225" y2="688.975" stroke="#8E8E8E"/>
<line x1="216.178" y1="665.921" x2="912.216" y2="612.608" stroke="#8E8E8E"/>
<line x1="795.083" y1="514.35" x2="257.505" y2="309.982" stroke="#8E8E8E"/>
<line x1="590.594" y1="569.757" x2="974.156" y2="285.418" stroke="#8E8E8E"/>
<line x1="783.842" y1="106.885" x2="634.267" y2="355.681" stroke="#8E8E8E"/>
<line x1="242.831" y1="156.48" x2="509.399" y2="134.266" stroke="#8E8E8E"/>
<line x1="367.72" y1="75.3064" x2="465.461" y2="273.751" stroke="#8E8E8E"/>
<line x1="780.942" y1="102.089" x2="829.813" y2="355.328" stroke="#8E8E8E"/>
<line x1="166.168" y1="8.48975" x2="634.143" y2="366.875" stroke="#8E8E8E"/>
<line x1="459.541" y1="285.607" x2="592.825" y2="568.465" stroke="#8E8E8E"/>
<line x1="910.495" y1="607.599" x2="236.671" y2="155.915" stroke="#8E8E8E"/>
<circle cx="163.643" cy="11.107" r="11.107" fill="white"/>
<circle cx="101.444" cy="144.39" r="11.107" fill="white"/>
<circle cx="242.132" cy="154.757" r="11.107" fill="white"/>
<circle cx="264.346" cy="307.293" r="11.107" fill="white"/>
<circle cx="464.272" cy="285.08" r="11.107" fill="white"/>
<circle cx="508.7" cy="134.023" r="11.107" fill="white"/>
<circle cx="370.973" cy="77.7496" r="11.107" fill="white"/>
<circle cx="831.544" cy="356.166" r="11.107" fill="white"/>
<circle cx="781.192" cy="99.9625" r="11.107" fill="white"/>
<circle cx="633.098" cy="356.166" r="11.107" fill="white"/>
<circle cx="393.188" cy="499.816" r="11.107" fill="white"/>
<circle cx="11.107" cy="477.601" r="11.107" fill="white"/>
<circle cx="215.476" cy="665.679" r="11.107" fill="white"/>
<circle cx="185.857" cy="425.767" r="11.107" fill="white"/>
<circle cx="51.0921" cy="317.66" r="11.107" fill="white"/>
<circle cx="687.893" cy="22.9546" r="11.107" fill="white"/>
<circle cx="973.713" cy="295.447" r="11.107" fill="white"/>
<circle cx="911.514" cy="612.365" r="11.107" fill="white"/>
<circle cx="591.632" cy="566.457" r="11.107" fill="white"/>
<circle cx="476.12" cy="687.892" r="11.107" fill="white"/>
<circle cx="793.039" cy="510.181" r="11.107" fill="white"/>
</svg>
