<svg width="420" height="150" viewBox="0 0 420 150" fill="none" xmlns="http://www.w3.org/2000/svg">
<path d="M0 21.5L77 98.7642V147.5L0 70.2358V21.5Z" fill="#386FA4"/>
<path d="M154 2.5L77 79.7642V128.5L154 51.2358V2.5Z" fill="#779BE7"/>
<path d="M255.664 96.576C255.664 101.44 254.384 105.621 251.824 109.12C249.349 112.619 245.979 115.307 241.712 117.184C237.445 119.061 232.752 120 227.632 120H184.24V29.12H231.088C235.355 29.12 239.024 30.272 242.096 32.576C245.253 34.7947 247.643 37.696 249.264 41.28C250.971 44.7787 251.824 48.448 251.824 52.288C251.824 56.7253 250.672 60.9067 248.368 64.832C246.149 68.672 242.949 71.5307 238.768 73.408C243.973 74.944 248.069 77.76 251.056 81.856C254.128 85.8667 255.664 90.7733 255.664 96.576ZM240.944 93.888C240.944 91.328 240.389 89.024 239.28 86.976C238.256 84.8427 236.805 83.136 234.928 81.856C233.136 80.4907 231.003 79.808 228.528 79.808H198.576V107.584H227.632C230.192 107.584 232.453 106.987 234.416 105.792C236.464 104.512 238.043 102.848 239.152 100.8C240.347 98.6667 240.944 96.3627 240.944 93.888ZM198.576 41.536V68.288H224.944C227.333 68.288 229.467 67.7333 231.344 66.624C233.221 65.4293 234.715 63.8507 235.824 61.888C236.933 59.84 237.488 57.536 237.488 54.976C237.488 52.3307 236.976 50.0267 235.952 48.064C234.928 46.016 233.52 44.4373 231.728 43.328C230.021 42.1333 228.016 41.536 225.712 41.536H198.576ZM268.823 120V53.056H282.903V120H268.823ZM268.823 42.048V26.56H282.903V42.048H268.823ZM337.455 65.216C331.994 65.3013 327.13 66.5387 322.863 68.928C318.682 71.3173 315.695 74.688 313.903 79.04V120H299.823V53.056H312.879V68.032C315.183 63.424 318.212 59.7547 321.967 57.024C325.722 54.208 329.69 52.672 333.871 52.416C334.724 52.416 335.407 52.416 335.919 52.416C336.516 52.416 337.028 52.4587 337.455 52.544V65.216ZM383.794 121.28C378.674 121.28 374.023 120.085 369.842 117.696C365.746 115.221 362.503 111.936 360.114 107.84V120H347.698V26.56H361.778V65.728C364.423 61.4613 367.709 58.0907 371.634 55.616C375.645 53.1413 380.338 51.904 385.714 51.904C390.151 51.904 394.205 52.8427 397.874 54.72C401.543 56.5973 404.658 59.1573 407.218 62.4C409.863 65.6427 411.869 69.3547 413.234 73.536C414.685 77.7173 415.41 82.1547 415.41 86.848C415.41 91.5413 414.599 95.9787 412.978 100.16C411.442 104.341 409.223 108.011 406.322 111.168C403.421 114.325 400.05 116.8 396.21 118.592C392.455 120.384 388.317 121.28 383.794 121.28ZM380.082 109.248C383.154 109.248 385.97 108.651 388.53 107.456C391.09 106.176 393.309 104.512 395.186 102.464C397.063 100.416 398.471 98.0267 399.41 95.296C400.434 92.5653 400.946 89.7493 400.946 86.848C400.946 82.8373 400.093 79.0827 398.386 75.584C396.765 72.0853 394.461 69.2693 391.474 67.136C388.487 65.0027 385.031 63.936 381.106 63.936C378.29 63.936 375.645 64.6187 373.17 65.984C370.695 67.264 368.477 69.0133 366.514 71.232C364.637 73.3653 363.058 75.7547 361.778 78.4V96.064C362.29 98.0267 363.186 99.8187 364.466 101.44C365.746 102.976 367.239 104.341 368.946 105.536C370.653 106.645 372.487 107.541 374.45 108.224C376.413 108.907 378.29 109.248 380.082 109.248Z" fill="#4B4B4B"/>
</svg>
